<svg width="170" height="26" viewBox="0 0 170 26" fill="none" xmlns="http://www.w3.org/2000/svg">
<path d="M0 13.4149C0 11.0819 0.539834 8.98904 1.6195 7.13634C2.72214 5.28363 4.20381 3.84264 6.06452 2.81336C7.94819 1.76121 10.0042 1.23513 12.2324 1.23513C14.7823 1.23513 17.045 1.86414 19.0205 3.12215C21.0191 4.35728 22.4663 6.11849 23.3622 8.40578H18.6415C18.0213 7.14777 17.1598 6.20998 16.0572 5.59242C14.9545 4.97485 13.6796 4.66607 12.2324 4.66607C10.6474 4.66607 9.2346 5.0206 7.99414 5.72965C6.75367 6.43871 5.77737 7.45656 5.06525 8.78318C4.3761 10.1098 4.03153 11.6537 4.03153 13.4149C4.03153 15.1762 4.3761 16.7201 5.06525 18.0467C5.77737 19.3733 6.75367 20.4026 7.99414 21.1345C9.2346 21.8436 10.6474 22.1981 12.2324 22.1981C13.6796 22.1981 14.9545 21.8893 16.0572 21.2718C17.1598 20.6542 18.0213 19.7164 18.6415 18.4584H23.3622C22.4663 20.7457 21.0191 22.5069 19.0205 23.742C17.045 24.9772 14.7823 25.5947 12.2324 25.5947C9.98118 25.5947 7.92522 25.0801 6.06452 24.0508C4.20381 22.9987 2.72214 21.5462 1.6195 19.6935C0.539834 17.8408 0 15.748 0 13.4149Z" fill="#F5F7FA"/>
<path d="M34.6448 25.6977C32.8531 25.6977 31.2335 25.2974 29.7863 24.4968C28.3391 23.6734 27.202 22.5298 26.375 21.0659C25.5481 19.5792 25.1346 17.8637 25.1346 15.9195C25.1346 13.9982 25.5596 12.2942 26.4095 10.8074C27.2595 9.3207 28.4195 8.17705 29.8897 7.3765C31.3599 6.57595 33.0024 6.17568 34.8171 6.17568C36.6319 6.17568 38.2744 6.57595 39.7445 7.3765C41.2147 8.17705 42.3748 9.3207 43.2248 10.8074C44.0747 12.2942 44.4997 13.9982 44.4997 15.9195C44.4997 17.8408 44.0632 19.5449 43.1903 21.0316C42.3174 22.5183 41.1228 23.6734 39.6067 24.4968C38.1136 25.2974 36.4596 25.6977 34.6448 25.6977ZM34.6448 22.3011C35.6556 22.3011 36.5974 22.0609 37.4704 21.5806C38.3662 21.1002 39.0899 20.3797 39.6412 19.4191C40.1925 18.4584 40.4682 17.2919 40.4682 15.9195C40.4682 14.5471 40.204 13.3921 39.6756 12.4543C39.1473 11.4936 38.4466 10.7731 37.5737 10.2928C36.7008 9.81246 35.759 9.5723 34.7482 9.5723C33.7375 9.5723 32.7956 9.81246 31.9227 10.2928C31.0727 10.7731 30.3951 11.4936 29.8897 12.4543C29.3843 13.3921 29.1316 14.5471 29.1316 15.9195C29.1316 17.9552 29.6485 19.5334 30.6822 20.6542C31.7389 21.7521 33.0598 22.3011 34.6448 22.3011Z" fill="#F5F7FA"/>
<path d="M45.5229 15.8509C45.5229 13.9525 45.9134 12.2713 46.6945 10.8074C47.4985 9.34357 48.5781 8.21136 49.9335 7.41081C51.3118 6.58739 52.8394 6.17568 54.5163 6.17568C55.7568 6.17568 56.9743 6.45015 58.1688 6.9991C59.3863 7.52518 60.3511 8.23423 61.0632 9.12628V0H65.0258V25.3889H61.0632V22.5412C60.42 23.4561 59.5241 24.2109 58.3755 24.8056C57.2499 25.4003 55.952 25.6977 54.4818 25.6977C52.8279 25.6977 51.3118 25.286 49.9335 24.4625C48.5781 23.6162 47.4985 22.4497 46.6945 20.963C45.9134 19.4534 45.5229 17.7493 45.5229 15.8509ZM61.0632 15.9195C61.0632 14.6158 60.7876 13.4836 60.2362 12.5229C59.7079 11.5622 59.0073 10.8303 58.1343 10.3271C57.2614 9.8239 56.3196 9.5723 55.3088 9.5723C54.2981 9.5723 53.3562 9.8239 52.4833 10.3271C51.6104 10.8074 50.8983 11.5279 50.3469 12.4886C49.8186 13.4264 49.5544 14.5471 49.5544 15.8509C49.5544 17.1547 49.8186 18.2983 50.3469 19.2818C50.8983 20.2654 51.6104 21.0202 52.4833 21.5462C53.3792 22.0494 54.321 22.3011 55.3088 22.3011C56.3196 22.3011 57.2614 22.0494 58.1343 21.5462C59.0073 21.043 59.7079 20.3111 60.2362 19.3505C60.7876 18.3669 61.0632 17.2233 61.0632 15.9195Z" fill="#F5F7FA"/>
<path d="M86.0357 15.4735C86.0357 16.1826 85.9898 16.823 85.8979 17.3948H71.3913C71.5062 18.9044 72.069 20.1167 73.0797 21.0316C74.0905 21.9465 75.331 22.404 76.8011 22.404C78.9145 22.404 80.4077 21.5234 81.2806 19.7622H85.5189C84.9446 21.5005 83.8994 22.9301 82.3833 24.0508C80.8901 25.1487 79.0294 25.6977 76.8011 25.6977C74.9864 25.6977 73.3554 25.2974 71.9082 24.4968C70.4839 23.6734 69.3583 22.5298 68.5313 21.0659C67.7273 19.5792 67.3253 17.8637 67.3253 15.9195C67.3253 13.9753 67.7159 12.2713 68.4969 10.8074C69.3009 9.3207 70.415 8.17705 71.8393 7.3765C73.2865 6.57595 74.9404 6.17568 76.8011 6.17568C78.5929 6.17568 80.1895 6.56451 81.5907 7.34219C82.992 8.11987 84.0832 9.21777 84.8642 10.6359C85.6452 12.0311 86.0357 13.6437 86.0357 15.4735ZM81.9353 14.2384C81.9123 12.7974 81.3955 11.6423 80.3847 10.7731C79.374 9.90395 78.122 9.46937 76.6289 9.46937C75.2735 9.46937 74.1135 9.90395 73.1487 10.7731C72.1838 11.6194 71.6096 12.7745 71.4258 14.2384H81.9353Z" fill="#F5F7FA"/>
<path d="M97.93 6.17568C99.4232 6.17568 100.756 6.48446 101.927 7.10203C103.122 7.71959 104.052 8.63451 104.718 9.84677C105.384 11.059 105.717 12.5229 105.717 14.2384V25.3889H101.824V14.8216C101.824 13.129 101.399 11.8367 100.549 10.9447C99.6988 10.0298 98.5388 9.5723 97.0686 9.5723C95.5984 9.5723 94.4268 10.0298 93.5539 10.9447C92.704 11.8367 92.279 13.129 92.279 14.8216V25.3889H88.3509V6.48446H92.279V8.64595C92.9222 7.86827 93.7377 7.26214 94.7255 6.82755C95.7362 6.39297 96.8044 6.17568 97.93 6.17568Z" fill="#F5F7FA"/>
<path d="M107.868 15.8509C107.868 13.9525 108.259 12.2713 109.04 10.8074C109.844 9.34357 110.923 8.21136 112.279 7.41081C113.657 6.58739 115.173 6.17568 116.827 6.17568C118.32 6.17568 119.618 6.47302 120.721 7.06772C121.846 7.63954 122.742 8.36003 123.408 9.2292V6.48446H127.371V25.3889H123.408V22.5755C122.742 23.4676 121.835 24.2109 120.686 24.8056C119.538 25.4003 118.228 25.6977 116.758 25.6977C115.127 25.6977 113.634 25.286 112.279 24.4625C110.923 23.6162 109.844 22.4497 109.04 20.963C108.259 19.4534 107.868 17.7493 107.868 15.8509ZM123.408 15.9195C123.408 14.6158 123.133 13.4836 122.581 12.5229C122.053 11.5622 121.352 10.8303 120.479 10.3271C119.607 9.8239 118.665 9.5723 117.654 9.5723C116.643 9.5723 115.701 9.8239 114.828 10.3271C113.956 10.8074 113.243 11.5279 112.692 12.4886C112.164 13.4264 111.9 14.5471 111.9 15.8509C111.9 17.1547 112.164 18.2983 112.692 19.2818C113.243 20.2654 113.956 21.0202 114.828 21.5462C115.724 22.0494 116.666 22.3011 117.654 22.3011C118.665 22.3011 119.607 22.0494 120.479 21.5462C121.352 21.043 122.053 20.3111 122.581 19.3505C123.133 18.3669 123.408 17.2233 123.408 15.9195Z" fill="#F5F7FA"/>
<path d="M140.559 6.17568C142.052 6.17568 143.385 6.48446 144.556 7.10203C145.751 7.71959 146.681 8.63451 147.347 9.84677C148.013 11.059 148.346 12.5229 148.346 14.2384V25.3889H144.453V14.8216C144.453 13.129 144.028 11.8367 143.178 10.9447C142.328 10.0298 141.168 9.5723 139.698 9.5723C138.227 9.5723 137.056 10.0298 136.183 10.9447C135.333 11.8367 134.908 13.129 134.908 14.8216V25.3889H130.98V6.48446H134.908V8.64595C135.551 7.86827 136.367 7.26214 137.355 6.82755C138.365 6.39297 139.433 6.17568 140.559 6.17568Z" fill="#F5F7FA"/>
<path d="M150.497 15.8509C150.497 13.9525 150.888 12.2713 151.669 10.8074C152.473 9.34357 153.552 8.21136 154.908 7.41081C156.286 6.58739 157.814 6.17568 159.49 6.17568C160.731 6.17568 161.948 6.45015 163.143 6.9991C164.36 7.52518 165.325 8.23423 166.037 9.12628V0H170V25.3889H166.037V22.5412C165.394 23.4561 164.498 24.2109 163.35 24.8056C162.224 25.4003 160.926 25.6977 159.456 25.6977C157.802 25.6977 156.286 25.286 154.908 24.4625C153.552 23.6162 152.473 22.4497 151.669 20.963C150.888 19.4534 150.497 17.7493 150.497 15.8509ZM166.037 15.9195C166.037 14.6158 165.762 13.4836 165.21 12.5229C164.682 11.5622 163.981 10.8303 163.109 10.3271C162.236 9.8239 161.294 9.5723 160.283 9.5723C159.272 9.5723 158.33 9.8239 157.457 10.3271C156.585 10.8074 155.872 11.5279 155.321 12.4886C154.793 13.4264 154.529 14.5471 154.529 15.8509C154.529 17.1547 154.793 18.2983 155.321 19.2818C155.872 20.2654 156.585 21.0202 157.457 21.5462C158.353 22.0494 159.295 22.3011 160.283 22.3011C161.294 22.3011 162.236 22.0494 163.109 21.5462C163.981 21.043 164.682 20.3111 165.21 19.3505C165.762 18.3669 166.037 17.2233 166.037 15.9195Z" fill="#F5F7FA"/>
</svg>
