<svg width="48" height="48" viewBox="0 0 48 48" fill="none" xmlns="http://www.w3.org/2000/svg">
<mask id="mask0_157_2" style="mask-type:luminance" maskUnits="userSpaceOnUse" x="9" y="4" width="31" height="40">
<path d="M39.8571 4H9V44H39.8571V4Z" fill="white"/>
</mask>
<g mask="url(#mask0_157_2)">
<path d="M24.4287 24C24.4287 22.2319 25.2415 20.5362 26.6882 19.286C28.1349 18.0357 30.097 17.3333 32.143 17.3333C34.189 17.3333 36.1511 18.0357 37.5978 19.286C39.0445 20.5362 39.8573 22.2319 39.8573 24C39.8573 25.7682 39.0445 27.4638 37.5978 28.714C36.1511 29.9643 34.189 30.6667 32.143 30.6667C30.097 30.6667 28.1349 29.9643 26.6882 28.714C25.2415 27.4638 24.4287 25.7682 24.4287 24Z" fill="#1ABCFE"/>
<path d="M9 37.3333C9 35.5652 9.81275 33.8695 11.2595 32.6193C12.7062 31.369 14.6683 30.6667 16.7143 30.6667H24.4286V37.3333C24.4286 39.1015 23.6158 40.7971 22.1691 42.0474C20.7224 43.2976 18.7603 44 16.7143 44C14.6683 44 12.7062 43.2976 11.2595 42.0474C9.81275 40.7971 9 39.1015 9 37.3333Z" fill="#0ACF83"/>
<path d="M24.4287 4V17.3333H32.143C34.189 17.3333 36.1511 16.6309 37.5978 15.3807C39.0445 14.1305 39.8573 12.4348 39.8573 10.6667C39.8573 8.89855 39.0445 7.20286 37.5978 5.95262C36.1511 4.70238 34.189 4 32.143 4H24.4287Z" fill="#FF7262"/>
<path d="M9 10.6667C9 12.4348 9.81275 14.1305 11.2595 15.3807C12.7062 16.6309 14.6683 17.3333 16.7143 17.3333H24.4286V4H16.7143C14.6683 4 12.7062 4.70238 11.2595 5.95262C9.81275 7.20286 9 8.89855 9 10.6667Z" fill="#F24E1E"/>
<path d="M9 24C9 25.7682 9.81275 27.4638 11.2595 28.714C12.7062 29.9643 14.6683 30.6667 16.7143 30.6667H24.4286V17.3333H16.7143C14.6683 17.3333 12.7062 18.0357 11.2595 19.286C9.81275 20.5362 9 22.2319 9 24Z" fill="#A259FF"/>
</g>
</svg>
