<svg width="21" height="20" viewBox="0 0 21 20" fill="none" xmlns="http://www.w3.org/2000/svg">
<g clip-path="url(#clip0_21_77)">
<path d="M10.9801 1.80199C13.6455 1.80199 13.9584 1.81387 15.0118 1.86139C15.9861 1.90496 16.5128 2.06733 16.8653 2.20595C17.3326 2.38813 17.6653 2.60199 18.0138 2.9505C18.3623 3.29902 18.5801 3.63169 18.7584 4.09902C18.893 4.45149 19.0594 4.97822 19.1029 5.95248C19.1504 7.00595 19.1623 7.31882 19.1623 9.98417C19.1623 12.6495 19.1504 12.9624 19.1029 14.0158C19.0594 14.9901 18.897 15.5168 18.7584 15.8693C18.5762 16.3366 18.3623 16.6693 18.0138 17.0178C17.6653 17.3663 17.3326 17.5842 16.8653 17.7624C16.5128 17.897 15.9861 18.0634 15.0118 18.1069C13.9584 18.1545 13.6455 18.1663 10.9801 18.1663C8.3148 18.1663 8.00193 18.1545 6.94846 18.1069C5.9742 18.0634 5.44747 17.901 5.095 17.7624C4.62767 17.5802 4.295 17.3663 3.94648 17.0178C3.59797 16.6693 3.38014 16.3366 3.20193 15.8693C3.06727 15.5168 2.90094 14.9901 2.85737 14.0158C2.80985 12.9624 2.79797 12.6495 2.79797 9.98417C2.79797 7.31882 2.80985 7.00595 2.85737 5.95248C2.90094 4.97822 3.06331 4.45149 3.20193 4.09902C3.3841 3.63169 3.59797 3.29902 3.94648 2.9505C4.295 2.60199 4.62767 2.38417 5.095 2.20595C5.44747 2.07129 5.9742 1.90496 6.94846 1.86139C8.00193 1.80991 8.3148 1.80199 10.9801 1.80199ZM10.9801 0.00396729C8.27123 0.00396729 7.93064 0.0158485 6.86529 0.0633732C5.80391 0.110898 5.07915 0.281195 4.44549 0.52674C3.78806 0.780205 3.23361 1.12476 2.67915 1.67921C2.1247 2.23367 1.7841 2.79209 1.52668 3.44555C1.28113 4.07921 1.11084 4.80397 1.06331 5.86931C1.01579 6.9307 1.00391 7.27129 1.00391 9.9802C1.00391 12.6891 1.01579 13.0297 1.06331 14.0951C1.11084 15.1564 1.28113 15.8812 1.52668 16.5188C1.78014 17.1762 2.1247 17.7307 2.67915 18.2852C3.23361 18.8396 3.79203 19.1802 4.44549 19.4376C5.07915 19.6832 5.80391 19.8535 6.86925 19.901C7.9346 19.9485 8.27123 19.9604 10.9841 19.9604C13.697 19.9604 14.0336 19.9485 15.099 19.901C16.1603 19.8535 16.8851 19.6832 17.5227 19.4376C18.1801 19.1842 18.7346 18.8396 19.2891 18.2852C19.8435 17.7307 20.1841 17.1723 20.4415 16.5188C20.6871 15.8852 20.8574 15.1604 20.9049 14.0951C20.9524 13.0297 20.9643 12.6931 20.9643 9.9802C20.9643 7.26733 20.9524 6.9307 20.9049 5.86535C20.8574 4.80397 20.6871 4.07921 20.4415 3.44159C20.1881 2.78417 19.8435 2.22971 19.2891 1.67525C18.7346 1.1208 18.1762 0.780205 17.5227 0.522779C16.8891 0.277235 16.1643 0.106938 15.099 0.0594128C14.0296 0.0158485 13.6891 0.00396729 10.9801 0.00396729Z" fill="black"/>
<path d="M10.9802 4.85553C8.1525 4.85553 5.85547 7.1486 5.85547 9.98028C5.85547 12.812 8.1525 15.105 10.9802 15.105C13.8079 15.105 16.105 12.808 16.105 9.98028C16.105 7.15256 13.8079 4.85553 10.9802 4.85553ZM10.9802 13.307C9.1426 13.307 7.65349 11.8179 7.65349 9.98028C7.65349 8.14266 9.1426 6.65355 10.9802 6.65355C12.8178 6.65355 14.307 8.14266 14.307 9.98028C14.307 11.8179 12.8178 13.307 10.9802 13.307Z" fill="black"/>
<path d="M15.3069 5.84954C15.9674 5.84954 16.5029 5.31405 16.5029 4.6535C16.5029 3.99294 15.9674 3.45746 15.3069 3.45746C14.6463 3.45746 14.1108 3.99294 14.1108 4.6535C14.1108 5.31405 14.6463 5.84954 15.3069 5.84954Z" fill="black"/>
</g>
<defs>
<clipPath id="clip0_21_77">
<rect width="21" height="20" fill="white"/>
</clipPath>
</defs>
</svg>
