<svg width="100" height="100" viewBox="0 0 100 100" fill="none" xmlns="http://www.w3.org/2000/svg">
<path d="M0 25.76C0 16.6481 0 12.0922 1.80138 8.62441C3.31939 5.70212 5.70212 3.31939 8.62441 1.80138C12.0922 0 16.6481 0 25.76 0H74.24C83.3518 0 87.9078 0 91.3756 1.80138C94.2979 3.31939 96.6806 5.70212 98.1986 8.62441C100 12.0922 100 16.6481 100 25.76V74.24C100 83.3518 100 87.9078 98.1986 91.3756C96.6806 94.2979 94.2979 96.6806 91.3756 98.1986C87.9078 100 83.3518 100 74.24 100H25.76C16.6481 100 12.0922 100 8.62441 98.1986C5.70212 96.6806 3.31939 94.2979 1.80138 91.3756C0 87.9078 0 83.3518 0 74.24V25.76Z" fill="#EEF3F5"/>
<path d="M11.28 58.428L4.368 50.58L11.28 42.696H20.136L13.224 50.58L20.136 58.428H11.28Z" fill="#031620"/>
<path d="M23.0309 50.256C23.0309 47.76 23.5469 45.54 24.5789 43.596C25.6349 41.628 27.1229 40.104 29.0429 39.024C30.9629 37.92 33.1709 37.368 35.6669 37.368C38.8349 37.368 41.4989 38.22 43.6589 39.924C45.8189 41.604 47.2109 43.896 47.8349 46.8H40.2389C39.7829 45.84 39.1469 45.108 38.3309 44.604C37.5389 44.1 36.6149 43.848 35.5589 43.848C33.9269 43.848 32.6189 44.436 31.6349 45.612C30.6749 46.764 30.1949 48.312 30.1949 50.256C30.1949 52.224 30.6749 53.796 31.6349 54.972C32.6189 56.124 33.9269 56.7 35.5589 56.7C36.6149 56.7 37.5389 56.448 38.3309 55.944C39.1469 55.44 39.7829 54.708 40.2389 53.748H47.8349C47.2109 56.652 45.8189 58.956 43.6589 60.66C41.4989 62.34 38.8349 63.18 35.6669 63.18C33.1709 63.18 30.9629 62.64 29.0429 61.56C27.1229 60.456 25.6349 58.932 24.5789 56.988C23.5469 55.02 23.0309 52.776 23.0309 50.256Z" fill="#031620"/>
<path d="M74.6842 63H67.6282L58.2322 48.816V63H51.1762V37.62H58.2322L67.6282 51.984V37.62H74.6842V63Z" fill="#031620"/>
<path d="M78.1995 42.696H87.0195L93.9315 50.58L87.0195 58.428H78.1995L85.1115 50.58L78.1995 42.696Z" fill="#031620"/>
</svg>
