<svg width="19" height="19" viewBox="0 0 19 19" fill="none" xmlns="http://www.w3.org/2000/svg">
<path d="M17.4445 0.259277H2.11117C1.16988 0.259277 0.407471 1.02168 0.407471 1.96298V17.2963C0.407471 18.2376 1.16988 19 2.11117 19H17.4445C18.3858 19 19.1482 18.2376 19.1482 17.2963V1.96298C19.1482 1.02168 18.385 0.259277 17.4445 0.259277ZM16.3277 8.32972C16.217 8.33994 16.1054 8.34676 15.993 8.34676C14.7194 8.34676 13.6001 7.69254 12.9484 6.70183C12.9484 9.29913 12.9484 12.2551 12.9484 12.3045C12.9484 14.5917 11.094 16.4453 8.80758 16.4453C6.52121 16.4445 4.66673 14.59 4.66673 12.3036C4.66673 10.0164 6.52121 8.16276 8.80758 8.16276C8.89447 8.16276 8.9788 8.17043 9.06314 8.17554V10.2166C8.97795 10.2064 8.89532 10.191 8.80758 10.191C7.64054 10.191 6.69414 11.1374 6.69414 12.3045C6.69414 13.4715 7.63969 14.4179 8.80758 14.4179C9.97547 14.4179 11.0062 13.4979 11.0062 12.3309C11.0062 12.284 11.0267 2.81568 11.0267 2.81568H12.9765C13.1597 4.55943 14.5678 5.93602 16.3277 6.06209V8.32972Z" fill="black"/>
</svg>
