<svg width="48" height="48" viewBox="0 0 48 48" fill="none" xmlns="http://www.w3.org/2000/svg">
<path d="M41.6812 13.8923V34.1721L24.1167 44.3128L6.55371 34.1721V13.8923L24.1167 3.75159L41.6812 13.8923Z" fill="#5FCEFF"/>
<path d="M24.1169 45.3618C23.9327 45.3618 23.7518 45.3133 23.5924 45.2212L6.02937 35.0806C5.8699 34.9885 5.73748 34.856 5.64541 34.6965C5.55334 34.537 5.50488 34.3561 5.50488 34.172V13.8923C5.50487 13.7081 5.55334 13.5273 5.64541 13.3678C5.73748 13.2083 5.8699 13.0759 6.02937 12.9839L23.5924 2.84318C23.7518 2.75107 23.9327 2.70258 24.1169 2.70258C24.301 2.70258 24.4819 2.75107 24.6413 2.84318L42.2058 12.9839C42.3653 13.0759 42.4977 13.2083 42.5898 13.3678C42.6819 13.5273 42.7303 13.7081 42.7303 13.8923V34.1721C42.7303 34.3563 42.6819 34.5372 42.5898 34.6967C42.4977 34.8562 42.3653 34.9886 42.2058 35.0807L24.6413 45.2214C24.4818 45.3133 24.301 45.3618 24.1169 45.3618ZM7.60285 33.5666L24.1169 43.1015L40.6324 33.5666V14.4978L24.1169 4.96288L7.60285 14.4978V33.5666Z" fill="#4F46A3"/>
<path d="M19.1147 34.4974C16.8486 34.4974 14.7182 33.6149 13.116 32.0126C11.5128 30.4096 10.6299 28.2787 10.6299 26.0126V15.6396C10.6299 15.3614 10.7404 15.0946 10.9371 14.8979C11.1338 14.7012 11.4007 14.5906 11.6789 14.5906C11.9571 14.5906 12.2239 14.7012 12.4206 14.8979C12.6173 15.0946 12.7279 15.3614 12.7279 15.6396V26.0126C12.7279 27.7184 13.3926 29.3223 14.5995 30.5292C15.8054 31.7354 17.409 32.3994 19.1147 32.3994C22.6363 32.3994 25.5015 29.5343 25.5015 26.0126V15.6396C25.5015 15.3614 25.612 15.0946 25.8087 14.8979C26.0054 14.7012 26.2723 14.5906 26.5505 14.5906C26.8287 14.5906 27.0955 14.7012 27.2922 14.8979C27.4889 15.0946 27.5994 15.3614 27.5994 15.6396V26.0126C27.5994 30.691 23.7931 34.4974 19.1147 34.4974ZM33.1081 34.4974C32.8299 34.4974 32.5631 34.3868 32.3664 34.1901C32.1696 33.9934 32.0591 33.7266 32.0591 33.4484V15.6396C32.0591 15.5019 32.0863 15.3655 32.139 15.2382C32.1917 15.1109 32.269 14.9953 32.3664 14.8979C32.4638 14.8005 32.5794 14.7232 32.7067 14.6705C32.8339 14.6178 32.9704 14.5906 33.1081 14.5906C33.2459 14.5906 33.3823 14.6178 33.5095 14.6705C33.6368 14.7232 33.7524 14.8005 33.8499 14.8979C33.9473 14.9953 34.0245 15.1109 34.0772 15.2382C34.13 15.3655 34.1571 15.5019 34.1571 15.6396V33.4484C34.1571 33.7266 34.0466 33.9934 33.8499 34.1901C33.6531 34.3868 33.3863 34.4974 33.1081 34.4974Z" fill="#4F46A3"/>
<path d="M19.1147 30.8064C17.6701 30.8064 16.3133 30.2442 15.2943 29.2234C14.2747 28.2057 13.7124 26.8483 13.7124 25.4028V15.734C13.7124 15.4558 13.8229 15.189 14.0196 14.9923C14.2164 14.7956 14.4832 14.685 14.7614 14.685C15.0396 14.685 15.3064 14.7956 15.5031 14.9923C15.6999 15.189 15.8104 15.4558 15.8104 15.734V25.4028C15.8104 26.2873 16.1538 27.1172 16.7777 27.7399C17.4017 28.3651 18.2311 28.7086 19.1147 28.7086C20.9368 28.7086 22.419 27.2256 22.419 25.4028V15.734C22.419 15.4558 22.5295 15.189 22.7262 14.9923C22.9229 14.7956 23.1897 14.685 23.468 14.685C23.7462 14.685 24.013 14.7956 24.2097 14.9923C24.4064 15.189 24.5169 15.4558 24.5169 15.734V25.4028C24.5169 28.3824 22.0935 30.8064 19.1147 30.8064ZM36.4049 34.4974C36.1267 34.4974 35.8599 34.3868 35.6632 34.1901C35.4665 33.9934 35.3559 33.7266 35.3559 33.4484V15.6396C35.3559 15.3614 35.4665 15.0946 35.6632 14.8979C35.8599 14.7012 36.1267 14.5906 36.4049 14.5906C36.6831 14.5906 36.9499 14.7012 37.1467 14.8979C37.3434 15.0946 37.4539 15.3614 37.4539 15.6396V33.4484C37.4539 33.7266 37.3434 33.9934 37.1467 34.1901C36.9499 34.3868 36.6831 34.4974 36.4049 34.4974Z" fill="#4F46A3"/>
</svg>
